<svg width="94" height="121" viewBox="0 0 94 121" fill="none" xmlns="http://www.w3.org/2000/svg">
<path d="M93.1805 58.8295C87.0144 52.3392 78.793 47.8985 70.2291 46.1905C66.4609 45.1657 62.6928 44.4825 58.9246 44.1409C68.5163 32.8682 66.8035 15.7884 55.4991 6.22376C44.1946 -3.34093 27.0667 -1.63295 17.4751 9.63972C7.88343 20.9124 9.59622 37.9922 20.9007 47.5569C22.956 49.2649 25.0114 50.6312 27.0667 51.3144V58.8295L21.5858 53.7056C16.79 48.9233 8.91111 48.9233 3.77273 53.7056C-1.02309 58.4879 -1.36565 66.0031 3.43017 70.7854L19.1879 89.2316C19.873 94.0139 21.5858 98.4547 23.9837 102.554C25.6965 105.628 28.0944 108.703 30.4923 111.094V117.584C30.4923 119.634 31.8625 121 33.9179 121H80.5058C82.2186 121 83.9314 119.292 83.9314 117.584V108.703C90.44 100.846 93.8656 90.9396 93.8656 81.0333V61.2207C94.2082 59.8543 93.8656 59.1711 93.1805 58.8295V58.8295ZM17.8176 26.7195C17.8176 15.4468 27.0667 6.56535 38.3711 6.90695C49.6756 6.90695 58.5821 16.13 58.2395 27.4027C58.2395 33.5514 55.4991 39.017 50.7032 42.7745V25.6947C50.5283 22.7344 49.2244 19.9528 47.0589 17.9204C44.8933 15.8879 42.0301 14.7585 39.0563 14.7637C32.8902 14.4221 27.4093 19.546 27.4093 25.6947V43.4577C21.5858 40.0418 18.1602 33.5514 17.8176 26.7195ZM87.357 80.6917C87.6996 89.5732 84.6165 98.1131 78.793 104.945C78.1079 105.628 77.4228 106.311 77.4228 107.336V114.51H37.686V109.727C37.686 108.703 37.0009 107.678 36.3158 106.995C33.9179 104.945 31.8625 102.554 30.1497 99.4795C28.0944 96.0635 26.7241 91.9644 26.039 87.8652C26.039 87.182 25.6965 86.4988 25.3539 85.8156L8.91111 66.3447C7.88343 65.3199 7.19831 63.9535 7.19831 62.2455C7.19831 60.8791 7.88343 59.1711 8.91111 58.1463C11.309 56.0968 14.7346 56.0968 17.1325 58.1463L27.0667 68.0526V78.3005L33.5753 74.8846V25.6947C33.9179 23.3036 35.9732 21.254 38.7137 21.5956C41.1116 21.5956 43.5095 23.3036 43.5095 25.6947V64.9783L50.3607 66.3447V50.6312C50.7032 50.2896 51.0458 50.2896 51.3884 49.948C53.7863 49.948 56.1842 50.2896 58.5821 50.6312V68.0526L64.063 69.0774V51.3144L68.1737 52.3392C69.8865 52.6808 71.5993 53.364 73.3121 54.0472V71.127L78.793 72.1518V56.4384C81.8761 57.8048 84.6165 59.8543 87.0144 62.2455L87.357 80.6917V80.6917Z" fill="white"/>
</svg>
