<svg width="224" height="235" viewBox="0 0 224 235" fill="none" xmlns="http://www.w3.org/2000/svg">
<path fill-rule="evenodd" clip-rule="evenodd" d="M108.069 0.237685C101.517 1.16203 94.8078 3.92141 91.1237 7.20768C86.8808 10.9915 85.0221 16.2185 85.0191 24.3738C85.0175 28.3993 84.828 29.6645 84.0321 30.9529C83.4641 31.8727 80.4438 34.2898 76.898 36.6623C70.7222 40.7945 67.9483 43.3228 67.0607 45.6276C66.3503 47.4718 66.4819 51.6541 67.3121 53.615C69.2057 58.0896 75.5689 62.502 80.3501 62.6557L82.6933 62.731L83.0825 59.4443C83.924 52.3377 84.0613 51.8219 85.5517 50.1462C87.31 48.1691 93.008 45.798 100.642 43.8659C105.057 42.7494 106.861 42.5699 113.703 42.5684C120.695 42.5664 122.277 42.7302 126.967 43.9397C136.615 46.4281 141.588 48.8406 143.086 51.7593C143.472 52.5096 143.947 54.8301 144.143 56.916C144.728 63.1351 144.736 63.1497 147.225 62.813C154.43 61.838 160.936 55.626 160.989 49.6719C161.032 44.8803 158.134 41.3467 149.811 36.0419C143.353 31.9258 142.772 30.8513 142.369 22.2783C142.1 16.5411 141.884 15.3417 140.675 12.8513C137.214 5.72509 127.193 0.508718 116.088 0.0536249C113.227 -0.0641936 109.618 0.0187346 108.069 0.237685ZM123.408 23.2856C130.705 24.3677 138.708 27.61 138.15 29.2584C137.902 29.9901 90.6607 30.2561 89.5482 29.532C88.6258 28.9313 89.9057 27.9513 94.2398 25.9403C100.824 22.8851 113.145 21.7641 123.408 23.2856ZM101.155 65.7154C97.9162 66.7293 95.427 68.1572 89.1626 72.5949C80.2702 78.8944 75.9869 80.8012 73.1376 79.7292C69.9862 78.5435 69.2738 73.2442 71.9151 70.6365C72.9384 69.6262 73.6877 69.3602 75.3282 69.4249C77.3836 69.5058 77.4133 69.4831 76.6824 68.3964C74.8872 65.7265 69.9283 66.1963 67.1703 69.297C65.2855 71.4162 64.5408 73.8601 64.5372 77.9372C64.5331 82.3 65.7946 85.5155 68.589 88.2653C72.8908 92.4976 78.897 94.3878 88.0942 94.4035C93.0997 94.4121 94.5993 94.2133 98.0816 93.0802C102.77 91.5536 106.592 89.5491 110.236 86.7053C111.63 85.6171 113.227 84.7272 113.783 84.7272C114.341 84.7272 116.074 85.7547 117.636 87.0107C123.737 91.9176 131.172 94.3347 140.166 94.3347C148.568 94.3347 154.333 92.4638 158.637 88.3401C161.721 85.385 162.505 83.5824 162.767 78.8489C163.031 74.0724 162.408 71.7398 160.21 69.2682C157.774 66.529 152.919 65.8029 150.831 67.865C149.597 69.0826 149.938 69.5574 152.047 69.5574C155.711 69.5574 157.704 72.4053 156.922 76.5224C156.499 78.7437 154.116 80.3305 151.73 79.979C149.161 79.6008 144.556 77.0872 137.396 72.1565C129.759 66.8971 127.323 65.6032 124.283 65.1916C121.633 64.833 118.468 66.0375 115.658 68.4733C114.649 69.3476 113.713 70.0631 113.576 70.0631C113.441 70.0631 112.55 69.3627 111.596 68.5067C109.481 66.6089 106.212 65.0207 104.484 65.0515C103.78 65.0641 102.281 65.363 101.155 65.7154ZM92.4727 104.069C91.5908 106.876 91.3818 114.012 92.0174 119.618L92.4477 123.41L93.9842 123.316C94.8293 123.263 96.7469 122.939 98.2455 122.594C100.642 122.043 100.933 121.841 100.659 120.919C99.4645 116.907 99.7057 114.932 101.672 112.624C102.755 111.354 102.876 110.903 102.441 109.771C102.156 109.032 101.923 107.887 101.923 107.226C101.923 106.161 101.439 105.88 97.6232 104.732C92.6387 103.23 92.7324 103.242 92.4727 104.069ZM129.068 104.968C126.392 105.762 123.712 106.424 123.113 106.441C121.564 106.483 121.055 107.346 120.71 110.516C120.489 112.542 120.609 113.563 121.153 114.278C121.562 114.818 121.898 115.999 121.898 116.902V118.543L127.404 118.739C130.432 118.846 133.393 119.105 133.984 119.315C134.961 119.661 135.117 119.418 135.718 116.623C136.231 114.237 136.248 112.899 135.795 110.642C135.474 109.043 135.155 106.842 135.085 105.751C135.015 104.66 134.728 103.713 134.446 103.646C134.164 103.58 131.744 104.175 129.068 104.968ZM110.757 105.352C110.122 105.45 109 106.31 108.263 107.264C106.843 109.102 106.02 109.472 106.02 108.27C106.02 107.869 105.79 107.401 105.508 107.229C104.283 106.482 105.14 109.232 106.532 110.516C107.378 111.295 108.069 112.174 108.069 112.469C108.069 112.764 107.151 113.249 106.029 113.547C101.457 114.763 102.009 120.395 106.899 122.411C108.235 122.963 110.927 123.164 117.223 123.185C121.906 123.2 127.583 123.405 129.836 123.64C132.09 123.875 134.049 123.957 134.19 123.822C134.331 123.687 133.87 123.109 133.166 122.539C131.937 121.545 131.459 121.515 121.386 121.815C109.798 122.159 107.373 121.856 105.618 119.847C103.556 117.488 105.505 114.561 109.137 114.561C111.039 114.561 111.105 114.504 110.826 113.125C110.573 111.876 110.744 111.603 112.139 111.033C113.022 110.672 114.072 109.914 114.474 109.347C115.652 107.687 115.908 109.367 115.002 112.803C113.57 118.228 114.281 121.442 116.636 120.198C117.813 119.576 119.023 117.422 118.71 116.507C118.567 116.088 118.145 116.457 117.614 117.469C116.81 118.998 115.752 119.681 115.752 118.671C115.752 118.429 116.322 116.009 117.02 113.294C117.717 110.579 118.165 108.161 118.014 107.92C117.863 107.679 117.213 107.482 116.569 107.482C115.925 107.482 115.002 107.049 114.517 106.521C113.519 105.432 112.432 105.094 110.757 105.352ZM113.596 107.907C113.363 109.101 110.814 110.394 110.094 109.683C109.672 109.267 109.697 108.84 110.189 108.063C111.255 106.378 113.919 106.257 113.596 107.907ZM0.205382 115.268C0.0527536 115.661 0.00153668 116.743 0.0921917 117.673L0.256088 119.365H39.6936H79.1311V117.089V114.814L39.8068 114.684C6.34022 114.574 0.440983 114.661 0.205382 115.268ZM148.224 115.268C148.071 115.661 148.02 116.743 148.111 117.673L148.275 119.365H185.651H223.028L223.533 117.947C223.875 116.985 223.862 116.255 223.489 115.672C222.983 114.88 220.085 114.804 185.721 114.684C154.062 114.574 148.46 114.661 148.224 115.268ZM108.069 118.047C108.069 118.551 109.305 119.112 110.416 119.112C110.815 119.112 111.142 118.771 111.142 118.353C111.142 117.848 110.63 117.595 109.606 117.595C108.76 117.595 108.069 117.798 108.069 118.047ZM108.833 130.674C106.654 131.651 104.069 134.24 102.573 136.943C101.767 138.399 101.649 140.465 101.508 155.664C101.324 175.372 101.538 176.882 104.989 180.29C108.053 183.314 109.807 184.03 114.215 184.052C118.45 184.074 120.916 183.138 123.642 180.474C126.716 177.471 126.996 176.099 127.008 163.973L127.019 152.959L121.001 153.101L114.983 153.244V156.784V160.323L117.032 160.576L119.081 160.829L119.224 166.936C119.387 173.875 118.874 175.151 115.48 176.256C113.952 176.755 113.442 176.699 112.031 175.886C109.095 174.193 109.067 173.997 109.215 156.191L109.349 139.924L110.591 138.62C111.58 137.581 112.317 137.316 114.215 137.316C117.834 137.316 119.007 138.801 119.337 143.801L119.593 147.682H123.178H126.763L126.741 142.878C126.723 138.99 126.512 137.688 125.636 136.052C124.26 133.483 122.166 131.517 119.737 130.516C117.095 129.426 111.431 129.508 108.833 130.674ZM205.126 130.433C200.792 132.3 197.809 138.366 198.402 144.107C198.947 149.379 201.033 152.613 208.493 159.758C214.215 165.238 215.138 166.351 215.811 168.588C216.779 171.807 216.213 174.156 214.035 175.966C210.646 178.781 206.689 176.78 205.307 171.553L204.666 169.131L201.311 169.278L197.956 169.425L197.794 171.09C197.537 173.72 199.102 177.512 201.555 180.206C204.406 183.335 208.039 184.635 212.619 184.162C219.929 183.408 223.954 178.821 223.999 171.195C224.035 165.314 222.565 162.751 214.83 155.21C208.514 149.052 206.599 146.42 206.404 143.629C206.17 140.281 206.44 139.228 207.904 137.782C210.634 135.087 214.478 136.367 215.694 140.377C216.231 142.146 216.48 142.371 217.883 142.36C219.677 142.346 223.233 141.604 223.697 141.146C223.866 140.98 223.597 139.568 223.1 138.011C221.995 134.552 218.716 131.075 215.806 130.277C213.107 129.537 206.997 129.626 205.126 130.433ZM0 156.729C0 180.421 0.0855337 183.255 0.810262 183.529C2.1665 184.043 14.1237 183.872 16.826 183.299C20.6647 182.487 23.5672 180.417 25.344 177.226C26.7694 174.666 26.8713 174.124 26.8615 169.172C26.8498 162.939 25.7675 159.821 22.7186 157.234L20.8655 155.661L22.9383 153.489C24.6397 151.705 25.1217 150.735 25.6318 148.066C27.2206 139.753 23.3209 132.258 16.6078 130.721C15.502 130.468 11.3129 130.255 7.2985 130.249L0 130.236V156.729ZM35.1905 130.553C34.9908 130.75 34.8279 140.629 34.8279 152.506C34.8279 176.383 34.896 176.968 38.051 180.213C40.8455 183.087 43.2778 184.065 47.6323 184.067C53.0552 184.07 56.6031 182.038 59.0753 177.516C60.1606 175.53 60.1806 175.082 60.1806 152.991V130.489L56.4673 130.341C54.4248 130.259 52.75 130.373 52.7448 130.593C52.7397 130.814 52.6824 140.324 52.6168 151.727C52.5108 170.239 52.4037 172.629 51.617 174.048C50.5184 176.029 48.3196 176.863 45.9186 176.208C42.6745 175.324 42.7907 176.143 42.5106 152.282L42.2545 130.489L38.9038 130.342C37.0605 130.261 35.3898 130.356 35.1905 130.553ZM68.461 130.574C68.273 130.759 68.1193 142.701 68.1193 157.111V183.311L69.3055 183.605C69.958 183.767 71.6293 183.828 73.0188 183.741L75.5459 183.583L75.802 173.47L76.058 163.357L78.6645 163.207C80.347 163.11 81.4584 163.289 81.8006 163.713C82.092 164.073 83.188 168.123 84.2359 172.712C87.0099 184.853 86.2565 183.558 90.6463 183.734C92.7094 183.816 94.5819 183.701 94.8072 183.479C95.0331 183.256 94.0687 178.751 92.6643 173.468C89.1457 160.232 89.181 160.567 91.075 158.22C93.3399 155.413 93.8818 152.562 93.6303 144.779C93.449 139.174 93.2328 137.732 92.313 135.989C90.9449 133.397 88.6473 131.447 86.1576 130.764C84.0721 130.192 69.011 130.03 68.461 130.574ZM135.065 130.553C134.865 130.75 134.702 140.535 134.702 152.298C134.702 172.438 134.762 173.842 135.725 176.385C139.383 186.038 153.374 187.188 158.697 178.274L160.055 175.999L160.203 153.118L160.35 130.236H156.524C153.054 130.236 152.665 130.338 152.347 131.328C152.153 131.928 152.163 137.716 152.369 144.191C152.857 159.627 152.311 173.35 151.158 174.648C149.091 176.973 146.5 177.189 143.921 175.25L142.641 174.287L142.385 152.388L142.129 130.489L138.778 130.342C136.935 130.261 135.264 130.356 135.065 130.553ZM168.482 130.363C168.469 130.432 168.324 142.212 168.159 156.541C167.897 179.381 167.955 182.67 168.632 183.224C169.208 183.697 172.118 183.823 180.095 183.72L190.785 183.583L190.936 179.917L191.087 176.251H183.924C179.932 176.251 176.627 176.038 176.459 175.769C176.293 175.504 176.014 172.326 175.839 168.708C175.597 163.736 175.679 161.94 176.173 161.353C176.68 160.75 177.959 160.576 181.885 160.576H186.944V156.801V153.025L181.438 152.882L175.932 152.738L175.884 146.165C175.857 142.549 175.931 139.193 176.046 138.706C176.234 137.92 176.992 137.821 182.839 137.821C186.459 137.821 189.786 137.683 190.231 137.514C190.862 137.276 191.041 136.434 191.041 133.722V130.236H179.774C173.576 130.236 168.495 130.294 168.482 130.363ZM14.6318 138.562C18.9213 140.331 19.0826 149.24 14.8654 151.468C14.2784 151.778 12.5949 151.963 11.1244 151.879L8.45089 151.727L8.30646 145.434C8.22656 141.973 8.27727 138.844 8.41811 138.481C8.76588 137.587 12.3824 137.634 14.6318 138.562ZM85.0211 139.338C85.9261 140.232 86.0455 141.024 86.0455 146.141C86.0455 149.368 85.7894 152.487 85.4667 153.186C84.8121 154.605 83.2766 155.305 79.8302 155.758C75.9904 156.262 75.802 155.839 75.802 146.718C75.802 142.474 75.9556 138.849 76.1436 138.664C76.331 138.479 78.1749 138.327 80.241 138.327C83.314 138.327 84.1832 138.511 85.0211 139.338ZM16.3701 160.985C19.5728 164.147 19.538 171.043 16.3031 174.236C14.7517 175.769 11.2827 176.645 9.26986 176.014C8.23988 175.692 8.19481 175.354 8.19481 167.958C8.19481 163.713 8.34846 160.087 8.53643 159.902C8.72388 159.716 10.2399 159.565 11.905 159.565C14.5396 159.565 15.1184 159.749 16.3701 160.985ZM49.0377 193.065C48.7422 193.84 49.0567 202.098 49.3942 202.431C50.058 203.087 51.2175 201.921 51.2175 200.598C51.2175 199.068 52.1195 198.523 54.6747 198.507C55.3339 198.503 55.8271 198.188 55.8271 197.771C55.8271 197.274 55.1326 196.992 53.6504 196.886C51.8409 196.757 51.446 196.538 51.3097 195.593C51.1402 194.413 51.3333 194.332 54.5354 194.244C55.5577 194.216 56.1191 193.911 56.2374 193.317C56.3926 192.543 55.9705 192.432 52.8463 192.432C50.4621 192.432 49.1985 192.642 49.0377 193.065ZM62.1612 193.329C58.009 196.649 59.9681 202.546 65.2235 202.546C70.8528 202.546 73.0439 196.35 68.5204 193.222C67.0023 192.172 63.5348 192.23 62.1612 193.329ZM76.3536 193.742C75.0035 194.863 74.7776 195.393 74.7776 197.438C74.7776 201.243 77.1556 203.031 81.3355 202.37C85.5589 201.702 86.9023 196.633 83.6454 193.654C81.7575 191.926 78.4914 191.966 76.3536 193.742ZM90.1429 197.489V202.546H92.9358C94.4718 202.546 96.3043 202.287 97.0086 201.97C98.2122 201.429 99.8742 198.83 99.8742 197.489C99.8742 196.149 98.2122 193.549 97.0086 193.008C96.3043 192.691 94.4718 192.432 92.9358 192.432H90.1429V197.489ZM111.697 193.139C111.37 193.529 111.158 194.655 111.226 195.642C111.307 196.834 111.018 197.798 110.366 198.509C109.465 199.492 109.447 199.693 110.157 200.937C110.881 202.207 111.158 202.293 114.534 202.293H118.138L118.035 200.614C117.922 198.764 117.108 197.561 116.561 198.434C116.175 199.051 114.727 198.624 114.727 197.894C114.727 197.62 115.175 196.833 115.723 196.146C116.708 194.909 116.632 193.562 115.533 192.819C114.614 192.198 112.328 192.389 111.697 193.139ZM128.898 192.77C128.71 192.955 128.556 195.23 128.556 197.826V202.546H132.141C135.044 202.546 135.922 202.353 136.751 201.534C137.994 200.307 138.019 199.844 136.931 198.204C136.295 197.246 136.231 196.788 136.675 196.351C137.538 195.499 137.393 194.223 136.326 193.269C135.379 192.423 129.639 192.037 128.898 192.77ZM142.385 197.489V202.546H146.226C149.299 202.546 150.067 202.394 150.067 201.787C150.067 201.205 149.413 201.029 147.25 201.029C144.604 201.029 144.433 200.954 144.433 199.792C144.433 198.676 144.67 198.541 146.866 198.402C148.556 198.295 149.299 198.028 149.299 197.527C149.299 197.017 148.629 196.796 146.994 196.769C145.038 196.737 144.665 196.566 144.532 195.639C144.409 194.791 144.706 194.476 145.867 194.225C146.688 194.047 147.565 193.939 147.817 193.985C149.082 194.217 150.067 193.87 150.067 193.191C150.067 192.584 149.299 192.432 146.226 192.432H142.385V197.489ZM155.189 197.467V202.546H159.03C162.104 202.546 162.872 202.394 162.872 201.787C162.872 201.205 162.217 201.029 160.055 201.029C157.408 201.029 157.238 200.954 157.238 199.792C157.238 198.679 157.477 198.54 159.631 198.402C162.913 198.19 163.156 197.088 159.964 196.886C158.034 196.764 157.464 196.525 157.32 195.78C157.074 194.501 158.075 193.967 160.738 193.957C162.282 193.952 162.893 193.757 162.745 193.317C162.609 192.91 161.23 192.633 158.861 192.537L155.189 192.388V197.467ZM167.699 193.107C167.555 193.478 167.505 195.697 167.587 198.037C167.723 201.873 167.836 202.293 168.739 202.293C169.376 202.293 169.847 201.847 170.033 201.066C170.466 199.255 171.419 199.228 172.98 200.984C173.743 201.843 174.777 202.546 175.278 202.546C176.386 202.546 176.404 202.33 175.423 200.851C174.75 199.837 174.748 199.579 175.407 198.72C176.595 197.168 176.4 194.153 175.05 193.22C173.591 192.211 168.081 192.126 167.699 193.107ZM96.9108 195.625C97.1238 195.955 97.301 196.959 97.3056 197.857C97.3143 199.741 95.5617 201.212 93.6298 200.941C92.5608 200.792 92.4333 200.478 92.2961 197.657C92.167 194.997 92.2802 194.508 93.0643 194.335C94.2024 194.084 96.3914 194.818 96.9108 195.625ZM114.727 194.678C114.727 195.079 114.477 195.559 114.171 195.747C113.447 196.188 112.46 195.213 112.907 194.499C113.409 193.697 114.727 193.827 114.727 194.678ZM133.892 194.256C134.954 194.659 134.934 196.282 133.862 196.688C132.584 197.172 131.117 196.523 131.117 195.475C131.117 194.229 132.369 193.679 133.892 194.256ZM172.826 194.442C174.646 195.126 174.669 197.339 172.86 197.787C172.156 197.961 171.235 197.972 170.812 197.812C169.876 197.458 169.773 194.647 170.682 194.284C171.035 194.144 171.365 194.011 171.417 193.989C171.47 193.968 172.103 194.171 172.826 194.442ZM67.8269 195.25C68.9455 196.354 68.8323 198.808 67.6071 200.017C66.3764 201.232 65.1559 201.301 63.624 200.241C62.1643 199.232 62.0055 195.793 63.3817 195.001C64.7241 194.23 66.9173 194.352 67.8269 195.25ZM82.4602 195.466C83.0236 196.023 83.4846 196.943 83.4846 197.512C83.4846 198.803 81.2915 201.029 80.0192 201.029C78.5969 201.029 76.8263 199.147 76.8263 197.636C76.8263 194.74 80.3501 193.383 82.4602 195.466ZM0.203846 196.177C0.0522423 196.567 0.00153668 197.648 0.0921917 198.579L0.256088 200.27L19.3346 200.403L38.4132 200.535V198.001V195.466H19.4468C3.63132 195.466 0.434325 195.584 0.203846 196.177ZM184.895 197.989V200.523H204.092H223.289L223.597 199.31C223.767 198.643 223.829 197.562 223.735 196.909L223.565 195.719L204.23 195.587L184.895 195.454V197.989ZM134.898 199.029C135.147 199.257 135.206 199.815 135.03 200.269C134.564 201.466 131.445 201.105 131.199 199.825C130.879 198.162 133.368 197.626 134.898 199.029ZM113.987 199.543C114.805 200.435 114.835 200.652 114.195 201.052C113.173 201.69 112.904 201.654 112.172 200.782C111.519 200.006 111.79 198.5 112.583 198.5C112.83 198.5 113.462 198.969 113.987 199.543ZM101.411 210.725C101.411 211.125 100.531 211.836 99.4552 212.305C97.0352 213.359 95.0367 215.389 95.4285 216.396C95.9335 217.696 98.3023 218.964 98.9784 218.296C100.039 217.249 100.506 217.686 100.177 219.415C99.8547 221.114 100.669 226.111 101.334 226.518C101.913 226.871 106.936 224.952 108.392 223.822C110.251 222.378 110.772 222.5 110.374 224.286C110.078 225.616 110.212 225.867 111.471 226.339C113.741 227.191 114.496 225.687 114.225 220.851C114.174 219.933 114.401 218.863 114.728 218.473C115.526 217.523 114.053 215.511 111.752 214.407C110.819 213.96 109.93 213.271 109.777 212.876C109.623 212.482 109.291 212.286 109.036 212.441C108.782 212.596 107.873 212.23 107.017 211.628C105.057 210.25 101.411 209.663 101.411 210.725ZM116.391 211.429C115.193 212.137 113.983 212.577 113.702 212.405C113.421 212.234 113.191 212.523 113.191 213.049C113.191 213.575 113.741 214.296 114.415 214.652C116.345 215.672 117.027 217.502 117.03 221.66L117.032 225.46L119.268 226.2C121.148 226.823 121.573 226.831 121.936 226.251C122.575 225.231 123.086 220.454 122.714 218.989C122.354 217.57 122.528 217.472 124.015 218.257C125.283 218.927 127.532 217.664 127.532 216.281C127.532 215.081 125.096 212.826 123.036 212.116C122.128 211.804 121.386 211.229 121.386 210.839C121.386 209.702 118.792 210.008 116.391 211.429ZM94.6387 220.117C94.207 220.604 93.5412 221.876 93.1591 222.945C92.4169 225.019 92.4231 225.031 95.0357 226.585C95.7865 227.031 95.8208 227.267 95.2656 228.145C94.4667 229.408 94.9737 233.537 96.0595 234.609C96.8821 235.421 99.6268 234.917 101.706 233.571C102.725 232.912 102.782 232.662 102.278 231.042C101.937 229.942 101.262 229.073 100.541 228.802C99.8926 228.558 99.362 228.142 99.362 227.875C99.362 227.609 98.878 227.239 98.2859 227.054C97.5033 226.809 97.3635 226.565 97.7738 226.16C98.0841 225.854 98.3377 224.434 98.3377 223.005C98.3377 220.71 98.1845 220.337 97.0332 219.819C95.4065 219.088 95.5699 219.067 94.6387 220.117ZM125.623 219.84C124.837 220.799 124.269 225.63 124.897 226.014C125.535 226.403 123.175 228.84 122.161 228.84C121.253 228.84 121.046 229.188 120.62 231.426C120.285 233.191 120.339 233.272 122.377 234.078C125.54 235.326 126.786 235.168 127.519 233.421C127.862 232.604 128.063 230.727 127.965 229.249C127.808 226.864 127.916 226.509 128.94 226.065C130.337 225.46 130.417 223.781 129.169 221.255C128.243 219.381 126.552 218.706 125.623 219.84ZM105.636 227.637C104.158 228.288 102.947 228.974 102.947 229.161C102.947 229.895 105.599 232.885 106.249 232.885C107.235 232.885 110.118 229.494 110.118 228.334C110.118 226.593 108.56 226.351 105.636 227.637ZM115.125 229.23C114.31 230.928 114.306 231.135 115.077 231.975C115.535 232.476 116.32 232.885 116.821 232.885C117.702 232.885 119.849 230.454 119.849 229.456C119.849 228.756 118.78 228.015 117.288 227.681C116.199 227.437 115.876 227.669 115.125 229.23Z" fill="white"/>
</svg>
